<?xml version="1.0" encoding="utf-8"?>
<!-- Generator: Adobe Illustrator 16.0.0, SVG Export Plug-In . SVG Version: 6.00 Build 0)  -->
<!DOCTYPE svg PUBLIC "-//W3C//DTD SVG 1.1//EN" "http://www.w3.org/Graphics/SVG/1.1/DTD/svg11.dtd">
<svg version="1.1" id="Layer_1" xmlns="http://www.w3.org/2000/svg" xmlns:xlink="http://www.w3.org/1999/xlink" x="0px" y="0px"
	 width="96px" height="96px" viewBox="0 0 96 96" enable-background="new 0 0 96 96" xml:space="preserve">
<path d="M48,25.922C22.576,25.922,1.964,48,1.964,48S22.576,70.078,48,70.078C73.425,70.078,94.036,48,94.036,48
	S73.425,25.922,48,25.922z M48,56c-4.411,0-8-3.589-8-8s3.589-8,8-8s8,3.589,8,8S52.411,56,48,56z M38.574,35.101
	C34.598,38.015,32,42.704,32,48c0,5.285,2.587,9.966,6.549,12.881c-10.238-2.499-19.117-8.442-24.661-12.896
	C19.422,43.521,28.288,37.583,38.574,35.101z M57.45,60.881C61.413,57.966,64,53.285,64,48s-2.587-9.966-6.549-12.881
	C67.676,37.615,76.546,43.547,82.091,48C76.543,52.455,67.675,58.386,57.45,60.881z"/>
</svg>
