<?xml version="1.0" encoding="UTF-8" standalone="no"?>
<!-- Generator: Adobe Illustrator 16.0.0, SVG Export Plug-In . SVG Version: 6.00 Build 0)  -->

<svg
   xmlns:dc="http://purl.org/dc/elements/1.1/"
   xmlns:cc="http://creativecommons.org/ns#"
   xmlns:rdf="http://www.w3.org/1999/02/22-rdf-syntax-ns#"
   xmlns:svg="http://www.w3.org/2000/svg"
   xmlns="http://www.w3.org/2000/svg"
   xmlns:sodipodi="http://sodipodi.sourceforge.net/DTD/sodipodi-0.dtd"
   xmlns:inkscape="http://www.inkscape.org/namespaces/inkscape"
   version="1.1"
   id="Layer_1"
   x="0px"
   y="0px"
   width="96px"
   height="96px"
   viewBox="0 0 96 96"
   enable-background="new 0 0 96 96"
   xml:space="preserve"
   inkscape:version="0.48.4 r9939"
   sodipodi:docname="visible1gray.svg"><metadata
   id="metadata9"><rdf:RDF><cc:Work
       rdf:about=""><dc:format>image/svg+xml</dc:format><dc:type
         rdf:resource="http://purl.org/dc/dcmitype/StillImage" /></cc:Work></rdf:RDF></metadata><defs
   id="defs7" /><sodipodi:namedview
   pagecolor="#ffffff"
   bordercolor="#666666"
   borderopacity="1"
   objecttolerance="10"
   gridtolerance="10"
   guidetolerance="10"
   inkscape:pageopacity="0"
   inkscape:pageshadow="2"
   inkscape:window-width="1920"
   inkscape:window-height="1028"
   id="namedview5"
   showgrid="false"
   inkscape:zoom="3.4766083"
   inkscape:cx="-5.0394953"
   inkscape:cy="10.286902"
   inkscape:window-x="1672"
   inkscape:window-y="-8"
   inkscape:window-maximized="1"
   inkscape:current-layer="Layer_1" />
<path
   d="M48,25.922C22.576,25.922,1.964,48,1.964,48S22.576,70.078,48,70.078C73.425,70.078,94.036,48,94.036,48  S73.425,25.922,48,25.922z M48,56c-4.411,0-8-3.589-8-8s3.589-8,8-8s8,3.589,8,8S52.411,56,48,56z M38.574,35.101  C34.598,38.015,32,42.704,32,48c0,5.285,2.587,9.966,6.549,12.881c-10.238-2.499-19.117-8.442-24.661-12.896  C19.422,43.521,28.288,37.583,38.574,35.101z M57.45,60.881C61.413,57.966,64,53.285,64,48s-2.587-9.966-6.549-12.881  C67.676,37.615,76.546,43.547,82.091,48C76.543,52.455,67.675,58.386,57.45,60.881z"
   id="path3"
   style="fill:#c0c0c0;fill-opacity:1" />
</svg>